<svg data-v-5e7abe3c="" width="6px" height="24px" viewBox="0 0 6 24" fill="#FFFFFF" version="1.1" xmlns="http://www.w3.org/2000/svg" xmlns:xlink="http://www.w3.org/1999/xlink"><g data-v-5e7abe3c="" transform="translate(-1801.000000, -319.000000)"><path data-v-5e7abe3c="" d="M1795.11865,333.230957 C1795.9165,333.230957 1796.52189,333.013997 1796.93481,332.580078 C1797.34774,332.146159 1797.5542,331.607259 1797.5542,330.963379 C1797.5542,330.291504 1797.34774,329.731608 1796.93481,329.283691 C1796.52189,328.835775 1795.9165,328.611816 1795.11865,328.611816 C1794.3208,328.611816 1793.72241,328.835775 1793.32349,329.283691 C1792.92456,329.731608 1792.7251,330.291504 1792.7251,330.963379 C1792.7251,331.607259 1792.92456,332.146159 1793.32349,332.580078 C1793.72241,333.013997 1794.3208,333.230957 1795.11865,333.230957 Z M1804.29395,333.230957 C1805.0918,333.230957 1805.69718,333.013997 1806.11011,332.580078 C1806.52303,332.146159 1806.72949,331.607259 1806.72949,330.963379 C1806.72949,330.291504 1806.52303,329.731608 1806.11011,329.283691 C1805.69718,328.835775 1805.0918,328.611816 1804.29395,328.611816 C1803.49609,328.611816 1802.89771,328.835775 1802.49878,329.283691 C1802.09985,329.731608 1801.90039,330.291504 1801.90039,330.963379 C1801.90039,331.607259 1802.09985,332.146159 1802.49878,332.580078 C1802.89771,333.013997 1803.49609,333.230957 1804.29395,333.230957 Z M1813.00732,333.230957 C1813.80518,333.230957 1814.41056,333.013997 1814.82349,332.580078 C1815.23641,332.146159 1815.44287,331.607259 1815.44287,330.963379 C1815.44287,330.291504 1815.23641,329.731608 1814.82349,329.283691 C1814.41056,328.835775 1813.80518,328.611816 1813.00732,328.611816 C1812.20947,328.611816 1811.61108,328.835775 1811.21216,329.283691 C1810.81323,329.731608 1810.61377,330.291504 1810.61377,330.963379 C1810.61377,331.607259 1810.81323,332.146159 1811.21216,332.580078 C1811.61108,333.013997 1812.20947,333.230957 1813.00732,333.230957 Z" transform="translate(1804.083984, 330.921387) rotate(-270.000000) translate(-1804.083984, -330.921387) "></path></g></svg>